/vscmnt/brussel_pixiu_data/_data_brussel/112/vsc11236/PredSimResults/SUBJ09opt3D/trackIG/worker_03.mot
version=1
nRows=4
nColumns=50
inDegrees=yes
endheader
                time	         pelvis_tilt	         pelvis_list	     pelvis_rotation	           pelvis_tx	           pelvis_ty	           pelvis_tz	       hip_flexion_r	     hip_adduction_r	      hip_rotation_r	        knee_angle_r	       ankle_angle_r	         mtp_angle_r	       hip_flexion_l	     hip_adduction_l	      hip_rotation_l	        knee_angle_l	       ankle_angle_l	         mtp_angle_l	    lumbar_extension	      lumbar_bending	     lumbar_rotation	 ercspn_r/activation	 intobl_r/activation	 extobl_r/activation	    abd_r/activation	    add_r/activation	hamstrings_r/activation	bifemsh_r/activation	glut_max_r/activation	iliopsoas_r/activation	rect_fem_r/activation	  vasti_r/activation	gastroc_r/activation	 soleus_r/activation	tib_ant_r/activation	 ercspn_l/activation	 intobl_l/activation	 extobl_l/activation	    abd_l/activation	    add_l/activation	hamstrings_l/activation	bifemsh_l/activation	glut_max_l/activation	iliopsoas_l/activation	rect_fem_l/activation	  vasti_l/activation	gastroc_l/activation	 soleus_l/activation	tib_ant_l/activation	
          0.00000000	         -2.23332778	         -0.39817909	          5.97309571	          0.00000000	          1.00389167	         -0.00774459	         22.35019903	         -1.28120948	         -9.86119368	         -1.51023005	          1.09020172	          0.22536516	         -8.94999914	         -2.47997090	        -12.44273274	        -13.60628318	          9.30286137	         27.44386175	        -14.26286992	         -3.01503037	         -6.45644200	          0.01266617	          0.19837188	          0.06060752	          0.00999999	          0.21280931	          0.02544057	          0.01000063	          0.01123190	          0.08457546	          0.03320564	          0.01686765	          0.01000000	          0.00999999	          0.27382692	          0.01000000	          0.00999999	          0.00999999	          0.06005358	          0.01000000	          0.01029718	          0.07706727	          0.03836267	          0.01000013	          0.01000018	          0.01000000	          0.22168364	          0.25225918	          0.00999999	
          0.01599690	         -2.34560039	         -0.37436417	          5.83088438	          0.01724786	          1.00187068	         -0.00610490	         21.56838480	         -1.09346742	        -10.06100095	         -1.59150426	          0.56782204	          0.20823422	         -9.52503026	         -2.68804174	        -13.13690828	        -14.22934213	          8.74910675	         28.73132876	        -13.72610259	         -2.59842081	         -6.56693445	          0.01000002	          0.20687341	          0.04785000	          0.02971404	          0.16801421	          0.02947969	          0.05230016	          0.00999999	          0.06677283	          0.02621605	          0.01331711	          0.01266616	          0.01266613	          0.30735277	          0.01000015	          0.01000000	          0.01266612	          0.04741266	          0.01266611	          0.03396795	          0.06084507	          0.03260144	          0.01000001	          0.01000000	          0.02367153	          0.20495891	          0.23744388	          0.00999999	
          0.03199379	         -2.44054701	         -0.41412901	          5.64292586	          0.03490773	          1.00025485	         -0.00437914	         20.71214517	         -0.85399921	        -10.37557402	         -1.56738672	         -0.21320664	          0.20142234	        -10.01064228	         -2.99288105	        -13.85566024	        -15.06420538	          7.99249760	         30.06759487	        -13.15392730	         -2.08644154	         -6.64650861	          0.01000000	          0.17040742	          0.03777786	          0.06512445	          0.13264823	          0.05072620	          0.04129129	          0.02090573	          0.05271754	          0.02069772	          0.01051403	          0.01000001	          0.00999999	          0.34763259	          0.00999999	          0.00999999	          0.01000000	          0.03743257	          0.00999999	          0.03403696	          0.04803755	          0.02573903	          0.01000000	          0.01000000	          0.02322832	          0.17732256	          0.21547309	          0.00999999	
          0.04799069	         -2.52124608	         -0.48270180	          5.40424362	          0.05263908	          0.99935521	         -0.00255498	         19.89966916	         -0.59549418	        -10.81738357	         -1.65346610	         -0.91682756	          0.17655644	        -10.29776704	         -3.37814853	        -14.58870513	        -16.26012353	          6.96583890	         31.42914679	        -12.58881272	         -1.52267341	         -6.69406593	          0.01000004	          0.13453767	          0.02982584	          0.09567311	          0.10472657	          0.05616634	          0.03259973	          0.03119229	          0.04162081	          0.01634098	          0.02209212	          0.01000000	          0.00999999	          0.36943865	          0.01000002	          0.00999999	          0.00999999	          0.02955324	          0.00999999	          0.04477720	          0.03792593	          0.02032112	          0.01000004	          0.01000001	          0.02125125	          0.13999721	          0.19073240	          0.00999999	
